HIERARCHY
ROOT root
{
	OFFSET	0	13.1	24.9
	CHANNELS 6  Xposition Yposition Zposition Xrotation Yrotation Zrotation
	JOINT spine_1
	{
		OFFSET	0	9.99999	0
		CHANNELS 3  Xrotation Yrotation Zrotation
		JOINT spine_2
		{
			OFFSET	0	112	-10
			CHANNELS 3  Xrotation Yrotation Zrotation
			JOINT spine_3
			{
				OFFSET	0	206.5	19.3
				CHANNELS 3  Xrotation Yrotation Zrotation
				JOINT spine_4
				{
					OFFSET	0	110.4	14.6
					CHANNELS 3  Xrotation Yrotation Zrotation
					JOINT neck_1
					{
						OFFSET	0	71.8	-50.3
						CHANNELS 3  Xrotation Yrotation Zrotation
						JOINT neck_2
						{
							OFFSET	0	86.2	-25.8
							CHANNELS 3  Xrotation Yrotation Zrotation
							JOINT head_ee
							{
								OFFSET	0	179.8	-8.7
								CHANNELS 3  Xrotation Yrotation Zrotation
								End Site
								{
									OFFSET	1	0	0
								}
							}
						}
					}
					JOINT left_clavicle
					{
						OFFSET	-43.2	22.4	-70.8
						CHANNELS 3  Xrotation Yrotation Zrotation
						JOINT left_shoulder
						{
							OFFSET	-93.9	-5.79999	48.7
							CHANNELS 3  Xrotation Yrotation Zrotation
							JOINT left_elbow
							{
								OFFSET	-291.4	-30.8	15.2
								CHANNELS 3  Xrotation Yrotation Zrotation
								JOINT left_lowarm_twist
								{
									OFFSET	-110.7	-3.89999	13.6
									CHANNELS 3  Xrotation Yrotation Zrotation
									JOINT left_hand
									{
										OFFSET	-110.7	-3.89999	13.6
										CHANNELS 3  Xrotation Yrotation Zrotation
										JOINT left_ee
										{
											OFFSET	-80.8	-5.10001	12.1
											CHANNELS 3  Xrotation Yrotation Zrotation
											End Site
											{
												OFFSET	1	0	0
											}
										}
									}
								}
							}
						}
					}
					JOINT right_clavicle
					{
						OFFSET	43.2	22.4	-70.8
						CHANNELS 3  Xrotation Yrotation Zrotation
						JOINT right_shoulder
						{
							OFFSET	93.9	-5.79999	48.7
							CHANNELS 3  Xrotation Yrotation Zrotation
							JOINT right_elbow
							{
								OFFSET	291.4	-30.8	15.2
								CHANNELS 3  Xrotation Yrotation Zrotation
								JOINT right_lowarm_twist
								{
									OFFSET	110.7	-3.89999	13.6
									CHANNELS 3  Xrotation Yrotation Zrotation
									JOINT right_hand
									{
										OFFSET	110.7	-3.89999	13.6
										CHANNELS 3  Xrotation Yrotation Zrotation
										JOINT right_ee
										{
											OFFSET	80.8	-5.10001	12.1
											CHANNELS 3  Xrotation Yrotation Zrotation
											End Site
											{
												OFFSET	1	0	0
											}
										}
									}
								}
							}
						}
					}
				}
			}
		}
	}
	JOINT left_hip
	{
		OFFSET	-82.8	-127.5	0.300001
		CHANNELS 3  Xrotation Yrotation Zrotation
		JOINT left_knee
		{
			OFFSET	-28.2	-396.7	2.2
			CHANNELS 3  Xrotation Yrotation Zrotation
			JOINT left_ankle
			{
				OFFSET	-11.7	-411.3	35.4
				CHANNELS 3  Xrotation Yrotation Zrotation
				JOINT left_toes
				{
					OFFSET	0	-60	-88.6
					CHANNELS 3  Xrotation Yrotation Zrotation
					JOINT left_foot_ee
					{
						OFFSET	-22.5	-16.5	-42.2
						CHANNELS 3  Xrotation Yrotation Zrotation
						End Site
						{
							OFFSET	1	0	0
						}
					}
				}
			}
		}
	}
	JOINT right_hip
	{
		OFFSET	82.8	-127.5	0.300001
		CHANNELS 3  Xrotation Yrotation Zrotation
		JOINT right_knee
		{
			OFFSET	28.2	-396.7	2.2
			CHANNELS 3  Xrotation Yrotation Zrotation
			JOINT right_ankle
			{
				OFFSET	11.7	-411.3	35.4
				CHANNELS 3  Xrotation Yrotation Zrotation
				JOINT right_toes
				{
					OFFSET	0	-60	-88.6
					CHANNELS 3  Xrotation Yrotation Zrotation
					JOINT right_foot_ee
					{
						OFFSET	22.5	-16.5	-42.2
						CHANNELS 3  Xrotation Yrotation Zrotation
						End Site
						{
							OFFSET	1	0	0
						}
					}
				}
			}
		}
	}
}
MOTION
Frames: 11
Frame Time: 0.02
1839.94 677.404 -1446.06 -22.4905 79.2231 24.8857 2.14497 0.24325 0.93481 2.14544 0.183275 0.948392 2.14846 0.0160808 0.965804 2.1472 0.168403 0.951146 -8.37855 -1.15611 -1.07407 -8.37584 -1.40769 -1.31884 -0.0 0.0 -0.0 -1.02347 23.7549 1.35523 -21.8444 -11.3122 68.183 0.49194 -13.6958 0.0590778 -9.33802 -0.421024 1.11582 2.5773 17.8925 23.624 -0.0 0.0 -0.0 12.6334 25.1927 -24.9232 10.2671 13.2319 -58.852 2.3711 49.5826 -1.09529 79.016 3.72557 8.55333 1.02905 -10.1668 -10.8627 0.0 0.0 0.0 31.9374 0.509302 -12.4189 -6.18244 0.204731 0.926276 -5.3819 -8.09007 0.831554 -8.63556 0.0 0.0 -0.0 0.0 -0.0 -11.0967 8.54956 -0.90509 -8.93489 -0.263481 -1.34453 40.0286 12.8443 5.10261 -20.7447 0.0 0.0 0.0 0.0 0.0 
1819.4 680.045 -1443.53 -20.4575 78.8243 23.0835 2.18062 0.236195 0.994243 2.18116 0.172453 1.00726 2.18417 -0.0041476 1.0219 2.18275 0.157287 1.00974 -8.44384 -2.57441 -0.0571254 -8.44711 -4.77405 -0.633895 -0.0 0.0 -0.0 -1.08383 23.9033 1.29407 -21.2661 -11.1879 68.1352 0.499204 -13.8902 0.0608096 -9.04097 -0.404851 1.08144 2.43618 19.9978 23.2623 -0.0 0.0 -0.0 12.8714 24.8252 -25.5126 9.40067 13.1106 -59.1338 2.34582 49.2792 -1.07608 76.2315 3.41131 8.38323 1.06186 -12.7606 -12.0285 0.0 0.0 0.0 30.9283 0.427024 -12.4126 -7.75729 0.240806 1.16525 -1.54388 -6.94922 0.235208 -7.70777 0.0 0.0 -0.0 0.0 -0.0 -11.8046 8.12901 -0.549408 -10.2936 -0.285057 -1.55189 39.2162 13.3137 5.04441 -19.1729 0.0 0.0 0.0 0.0 0.0 
1809.02 686.379 -1437.9 -22.0616 78.0847 24.6073 2.19121 0.215518 1.15803 2.19195 0.141398 1.1694 2.19479 -0.0625373 1.17625 2.19288 0.124002 1.17137 -8.93133 -3.23088 1.54012 -8.93274 -7.12103 0.764902 -0.0 0.0 -0.0 -1.1022 23.7312 1.24484 -18.9954 -12.3763 67.8243 0.47611 -13.2709 0.0553868 -8.87066 -0.395659 1.06169 2.39807 23.0782 23.8066 -0.0 0.0 -0.0 13.0549 24.5743 -25.9644 9.4344 12.534 -59.4848 2.26477 48.2814 -1.01512 75.2328 3.30065 8.31853 0.929381 -15.7308 -12.2435 0.0 0.0 0.0 31.2349 0.959052 -12.3722 -7.64792 0.238513 1.14862 -0.497961 -8.72079 0.0763554 -7.47578 0.0 0.0 -0.0 0.0 -0.0 -11.4911 8.79595 0.170877 -11.4506 -0.299549 -1.72884 38.1067 11.7757 4.90196 -17.556 0.0 0.0 0.0 0.0 0.0 
1782.89 693.545 -1431.52 -21.0996 78.1304 24.5026 2.18855 0.0935765 0.94183 2.18904 0.0334585 0.945875 2.18955 -0.130379 0.937444 2.18832 0.0193021 0.946269 -7.72731 -4.64659 0.839076 -7.72949 -9.25766 -0.159365 -0.0 0.0 -0.0 -2.50065 23.6554 -0.67387 -16.5396 -13.0078 69.652 0.621787 -17.1197 0.093592 -7.55451 -0.326614 0.908165 2.30543 23.9633 23.4314 -0.0 0.0 -0.0 12.7248 24.0255 -25.2577 7.98175 11.9318 -60.0377 2.28863 48.5793 -1.03297 72.2387 2.97591 8.11319 0.704448 -21.3108 -12.7835 0.0 0.0 0.0 29.6004 1.09963 -12.2858 -7.00413 0.224373 1.05084 0.769115 -6.77208 -0.116392 -6.50032 0.0 0.0 -0.0 0.0 -0.0 -11.2979 9.12657 0.405844 -13.3914 -0.315825 -2.02616 34.4096 13.9641 4.60587 -13.7666 0.0 0.0 0.0 0.0 0.0 
1760.05 699.812 -1427.34 -17.3497 78.1761 21.062 1.99264 0.166353 1.03212 1.99323 0.100343 1.04061 1.99505 -0.084389 1.04203 1.99354 0.0812298 1.04228 -8.44139 -5.55002 1.15773 -8.4534 -11.1891 -0.105847 -0.0 0.0 -0.0 -3.17914 24.3131 -1.46844 -13.9425 -13.8983 70.5238 0.732869 -19.953 0.128916 -7.27218 -0.312265 0.875031 2.1883 25.5533 23.0771 -0.0 0.0 -0.0 12.9005 23.9811 -25.6686 6.62459 11.4374 -59.9731 2.25969 48.2175 -1.01133 70.6248 2.80546 7.99558 0.599871 -23.1973 -12.7946 0.0 0.0 0.0 26.3982 1.68853 -12.0154 -6.89981 0.221979 1.03501 3.67797 -7.64002 -0.554346 -5.60381 0.0 0.0 -0.0 0.0 -0.0 -11.4373 9.28308 0.259977 -16.4518 -0.32101 -2.49562 35.6624 9.28314 4.61378 -12.4411 0.0 0.0 0.0 0.0 0.0 
1739.96 698.056 -1426.3 -16.4333 78.3667 20.1446 1.97383 0.181269 1.10604 1.97451 0.110527 1.11533 1.97665 -0.0878743 1.11734 1.97492 0.0896803 1.1172 -6.98453 -5.406 2.64745 -6.95524 -11.9509 1.55567 -0.0 0.0 -0.0 -4.42775 23.9018 -3.26032 -11.9371 -13.8406 72.4213 0.866291 -23.2256 0.178029 -8.51931 -0.376881 1.02086 1.80717 29.5569 21.7064 -0.0 0.0 -0.0 12.7994 23.8814 -25.4448 5.51371 11.0301 -60.4452 2.26456 48.2786 -1.01496 70.1157 2.75239 7.95749 0.486037 -26.2441 -13.1431 0.0 0.0 0.0 25.4804 1.92955 -11.8619 -6.63513 0.215773 0.994868 4.90521 -7.82308 -0.737185 -5.01167 0.0 0.0 -0.0 0.0 -0.0 -12.1305 9.3572 0.584582 -17.8768 -0.314868 -2.71418 32.1212 6.77531 4.21261 -10.1839 0.0 0.0 0.0 0.0 0.0 
1726.61 702.219 -1420.11 -19.7653 79.1058 23.7542 1.98731 0.152238 1.17009 1.98807 0.0774789 1.1774 1.98964 -0.131093 1.17264 1.98772 0.0557365 1.17863 -6.45721 -5.75876 3.08989 -6.40795 -12.9209 1.98945 -0.0 0.0 -0.0 -4.99489 23.2989 -4.19716 -8.81251 -13.7373 73.4999 0.966541 -25.5845 0.21946 -7.95338 -0.347165 0.954855 1.79191 29.7108 21.6525 -0.0 0.0 -0.0 12.7834 23.7854 -25.4174 4.81237 9.85259 -60.4949 2.14227 46.6953 -0.924808 68.7181 2.60845 7.85053 0.312586 -27.6631 -12.627 0.0 0.0 0.0 24.7905 2.35278 -11.1403 -4.81598 0.168114 0.719773 4.15743 -9.26949 -0.631047 -5.35132 0.0 0.0 -0.0 0.0 -0.0 -11.4228 9.67792 0.674444 -18.4821 -0.310614 -2.80695 32.6663 4.66911 4.23696 -8.90663 0.0 0.0 0.0 0.0 0.0 
1709.41 701.95 -1416.33 -20.2667 79.7695 23.8232 1.94134 0.155807 1.20978 1.94215 0.0785157 1.21724 1.94381 -0.138059 1.21193 1.94176 0.055061 1.21852 -7.14945 -5.93257 3.34973 -7.10783 -13.4351 2.13319 -0.0 0.0 -0.0 -4.52501 23.1272 -3.58362 -7.09743 -14.5128 73.1169 0.905454 -24.1576 0.193766 -9.30361 -0.419141 1.11184 1.22058 29.2353 18.2381 -0.0 0.0 -0.0 12.7976 23.74 -25.4547 4.5721 8.99049 -60.6563 2.07753 45.8174 -0.878032 68.3268 2.56862 7.81995 0.339095 -28.1431 -12.9345 0.0 0.0 0.0 22.6413 3.04245 -9.7046 -4.4992 0.158922 0.672027 7.99838 -8.76825 -1.19539 -4.87789 0.0 0.0 -0.0 0.0 -0.0 -10.4271 9.66471 0.945229 -19.7002 -0.299085 -2.99349 31.7591 0.486517 4.09881 -9.00311 0.0 0.0 0.0 0.0 0.0 
1688.59 706.247 -1414.3 -19.588 80.7454 23.1173 2.01577 0.1576 1.21868 2.01659 0.0797389 1.22624 2.01827 -0.136859 1.22118 2.01619 0.0577058 1.22747 -6.89033 -5.71733 4.01424 -6.82666 -13.5144 2.87645 -0.0 0.0 -0.0 -3.64422 23.3453 -2.30843 -4.16688 -13.8126 72.005 0.84859 -22.8001 0.171109 -10.2333 -0.470844 1.21893 0.345085 28.9507 13.2318 -0.0 0.0 -0.0 12.637 23.6924 -25.0883 2.35501 7.84033 -61.3127 1.98716 44.5441 -0.813931 68.3772 2.57374 7.82391 0.484659 -28.5379 -13.8769 0.0 0.0 0.0 21.3518 3.45228 -8.86851 -8.05916 0.24697 1.21116 12.2356 -5.45276 -1.77195 -3.20601 0.0 0.0 -0.0 0.0 -0.0 -9.73643 9.35585 0.284839 -21.968 -0.267067 -3.33997 32.4469 -2.82366 4.14976 -8.50682 0.0 0.0 0.0 0.0 0.0 
1671.73 706.597 -1408.21 -20.4948 81.6696 24.2943 1.96301 0.0925157 1.22787 1.96385 0.0142017 1.23127 1.96412 -0.203424 1.21443 1.96206 -0.00908977 1.23132 -7.98463 -5.90181 3.48711 -7.95786 -13.4758 2.17451 -0.0 0.0 -0.0 -3.21575 21.7385 -2.04474 -1.84782 -15.4327 71.9991 0.758927 -20.6037 0.137948 -10.903 -0.50917 1.29557 0.0111522 28.8887 11.3667 -0.0 0.0 -0.0 12.4313 24.0281 -24.5805 0.759142 6.97244 -61.7452 1.91639 43.5063 -0.764745 67.8102 2.51637 7.77919 0.357644 -29.1357 -13.3613 0.0 0.0 0.0 20.3887 4.29545 -8.21974 -8.9609 0.26394 1.3485 13.6935 -4.7693 -1.966 -2.53482 0.0 0.0 -0.0 0.0 -0.0 -9.26359 9.15043 -0.0263247 -22.7685 -0.252494 -3.46194 31.5898 -4.59186 4.05678 -8.84761 0.0 0.0 0.0 0.0 0.0 
1654.97 708.047 -1396.83 -19.786 81.9326 23.2912 2.0665 0.0820418 1.34772 2.06751 -0.00387548 1.35021 2.06733 -0.239837 1.32875 2.06487 -0.0269962 1.34995 -8.79776 -6.12268 2.6509 -8.80448 -13.3063 1.19754 -0.0 0.0 -0.0 -2.16031 21.4663 -0.587647 0.325346 -15.8621 71.5392 0.631687 -17.376 0.0965275 -11.7954 -0.561626 1.39697 -0.941394 28.3412 5.95626 -0.0 0.0 -0.0 11.9968 23.882 -23.5977 -0.896294 5.43572 -62.3505 1.84902 42.4839 -0.718796 68.6145 2.59788 7.84246 0.461496 -28.9667 -13.8838 0.0 0.0 0.0 18.8459 4.708 -7.19794 -10.2383 0.284275 1.54345 16.9375 -6.39534 -2.41331 -1.8832 0.0 0.0 -0.0 0.0 -0.0 -8.84923 9.42976 1.50417 -26.446 -0.163704 -4.01921 31.9748 -5.87891 4.09548 -7.31438 0.0 0.0 0.0 0.0 0.0 
